<svg width="72" height="72" viewBox="0 0 82 82" fill="none" xmlns="http://www.w3.org/2000/svg">
<path fill-rule="evenodd" clip-rule="evenodd" d="M41 1C50.6159 1 59.444 4.39816 66.345 10.0487L31.3255 30.2685V2.1848C34.4245 1.41012 37.6667 1 41 1ZM69.8216 13.2646C76.7422 20.4581 81 30.2294 81 40.9967C81 42.9627 80.8568 44.8897 80.5833 46.784L46.1693 26.9159L69.8216 13.2646ZM79.6263 51.4386C76.4362 63.2606 67.9661 72.9147 56.8984 77.7125V38.3212L79.6263 51.4386ZM52.3867 79.353C48.7799 80.4206 44.9583 81 41.0065 81C32.0547 81 23.793 78.0575 17.1328 73.097L52.3932 52.7406L52.3867 79.353ZM13.4544 69.9983C5.78516 62.7072 1 52.4151 1 40.9967C1 39.0243 1.14323 37.0908 1.42318 35.1899L36.9115 56.4447L13.4544 69.9983ZM2.39323 30.5158C5.7526 18.1145 14.9258 8.11531 26.8008 3.59745L26.5143 44.9613L2.39323 30.5158Z" fill="white" stroke="black" stroke-width="0.5669" stroke-miterlimit="22.9256"/>
</svg>
